<svg width="69" height="30" viewBox="0 0 69 30" fill="none" xmlns="http://www.w3.org/2000/svg">
<g filter="url(#filter0_d_2097_341)">
<path d="M67.7057 4.19288C68.031 4.38368 67.9271 4.87856 67.5506 4.93207L65.3222 5.24874C65.1578 5.27209 65.0236 5.39338 64.9843 5.55399L64.4608 7.69439C64.3726 8.0552 63.882 8.11781 63.7135 7.78977L62.6894 5.79584C62.6166 5.65414 62.4652 5.57045 62.3048 5.58323L60.0235 5.76487C59.6474 5.79482 59.4472 5.33938 59.7223 5.07958L61.3271 3.56385C61.4503 3.4475 61.488 3.26779 61.4215 3.11433L60.5545 1.11506C60.4059 0.772381 60.774 0.428103 61.1083 0.597028L63.1364 1.62167C63.279 1.69373 63.4522 1.67354 63.5764 1.57037L65.3238 0.118625C65.6113 -0.12022 66.0379 0.121797 65.9737 0.487314L65.5927 2.6556C65.5642 2.8183 65.6389 2.98047 65.7808 3.06373L67.7057 4.19288Z" fill="white"/>
<path d="M55.2411 20.5094C55.3982 20.8447 55.0348 21.1854 54.6922 21.0241L52.6471 20.0611C52.4972 19.9905 52.3179 20.0153 52.1947 20.1236L50.5134 21.6025C50.2317 21.8502 49.783 21.6213 49.8361 21.2568L50.1527 19.0833C50.1759 18.9237 50.0959 18.7666 49.9508 18.6868L47.9746 17.6003C47.6433 17.4182 47.7294 16.9359 48.1047 16.872L50.3457 16.4907C50.5098 16.4628 50.6396 16.3411 50.6733 16.1836L51.1333 14.0321C51.2103 13.6719 51.7122 13.6028 51.8912 13.9278L52.9587 15.8663C53.0371 16.0086 53.1975 16.0904 53.3634 16.0726L55.6232 15.8303C56.0021 15.7897 56.2261 16.2293 55.9614 16.4939L54.3812 18.0733C54.2655 18.189 54.2346 18.3613 54.3033 18.508L55.2411 20.5094Z" fill="white"/>
<path d="M35.3784 27.1833C35.3113 27.546 34.8269 27.626 34.6388 27.3053L33.5067 25.3763C33.4242 25.2356 33.2649 25.1577 33.1037 25.1792L30.8553 25.4794C30.4805 25.5294 30.2464 25.0807 30.505 24.8079L32.0188 23.2112C32.1335 23.0903 32.1595 22.9102 32.084 22.7599L31.0986 20.7985C30.9304 20.4638 31.2712 20.107 31.6149 20.258L33.7113 21.1789C33.8581 21.2434 34.0283 21.2153 34.1446 21.1074L35.8049 19.5664C36.0771 19.3138 36.5213 19.541 36.4779 19.9106L36.2236 22.0767C36.2041 22.2426 36.2906 22.4041 36.4404 22.4814L38.4178 23.5018C38.7556 23.6761 38.6892 24.1745 38.3184 24.2475L36.0944 24.6856C35.935 24.717 35.8116 24.8415 35.7822 25.0007L35.3784 27.1833Z" fill="white"/>
<path d="M15.0074 21.7766C14.7391 22.0385 14.2888 21.8372 14.3222 21.4703L14.5225 19.2682C14.5372 19.1073 14.4509 18.9556 14.3044 18.8845L12.2747 17.9C11.9358 17.7356 12.0034 17.2416 12.3761 17.1586L14.571 16.6702C14.7355 16.6336 14.8615 16.5013 14.8873 16.3382L15.2289 14.178C15.2868 13.8116 15.7793 13.7083 15.9742 14.0217L17.1553 15.9207C17.2392 16.0556 17.3983 16.1267 17.5591 16.1012L19.8232 15.7424C20.1969 15.6832 20.4339 16.1126 20.1819 16.3923L18.6963 18.0409C18.584 18.1655 18.5611 18.3438 18.6386 18.4886L19.6724 20.4205C19.848 20.7485 19.5014 21.1178 19.1523 20.9746L17.0617 20.1172C16.9108 20.0553 16.7351 20.0899 16.6174 20.2047L15.0074 21.7766Z" fill="white"/>
<path d="M1.48899 6.2729C1.11505 6.34276 0.851335 5.91541 1.09303 5.63124L2.52922 3.94261C2.63483 3.81844 2.65051 3.64286 2.56874 3.50017L1.46662 1.57709C1.28138 1.25388 1.60793 0.887529 1.96196 1.02138L4.09492 1.8278C4.2488 1.88598 4.42218 1.84855 4.53397 1.73302L6.09185 0.122886C6.35067 -0.144617 6.81627 0.0557166 6.79364 0.424843L6.66012 2.60238C6.6501 2.76586 6.74511 2.91983 6.8988 2.98916L8.94594 3.91264C9.29297 4.06919 9.25376 4.55982 8.88685 4.65217L6.67836 5.208C6.51989 5.24788 6.40324 5.37725 6.38297 5.53558L6.10196 7.73023C6.05532 8.0945 5.56611 8.19727 5.35989 7.88613L4.13289 6.03486C4.04185 5.89751 3.87444 5.82722 3.71104 5.85774L1.48899 6.2729Z" fill="#F4CE14"/>
</g>
<defs>
<filter id="filter0_d_2097_341" x="0" y="0" width="68.9001" height="29.5061" filterUnits="userSpaceOnUse" color-interpolation-filters="sRGB">
<feFlood flood-opacity="0" result="BackgroundImageFix"/>
<feColorMatrix in="SourceAlpha" type="matrix" values="0 0 0 0 0 0 0 0 0 0 0 0 0 0 0 0 0 0 127 0" result="hardAlpha"/>
<feOffset dy="1"/>
<feGaussianBlur stdDeviation="0.5"/>
<feComposite in2="hardAlpha" operator="out"/>
<feColorMatrix type="matrix" values="0 0 0 0 0 0 0 0 0 0 0 0 0 0 0 0 0 0 0.25 0"/>
<feBlend mode="normal" in2="BackgroundImageFix" result="effect1_dropShadow_2097_341"/>
<feBlend mode="normal" in="SourceGraphic" in2="effect1_dropShadow_2097_341" result="shape"/>
</filter>
</defs>
</svg>
